# xmcd CD database file
#
# Track frame offsets:
#	150
#	20771
#	41629
#	64311
#	90701
#	111811
#	132816
#	159225
#	181947
#	194681
#	213884
#	237851
#	266154
#
# Disc length: 3907 seconds
#
# Revision: 0
# Processed by: cddbd v1.5.2PL0 Copyright (c) Steve Scherf et al.
# Submitted via: CDex 1.51
#
DISCID=b70f410d
DTITLE=Celso Salim - Big City Blues
DYEAR=2007
DGENRE=Blues
TTITLE0=Best Cheater in Town
TTITLE1=Truthful Liars
TTITLE2=Big City Blues
TTITLE3=Sweet Lovin' Queen
TTITLE4=Dangerous Games
TTITLE5=If The Sea Was Whiskey
TTITLE6=Crazy About You
TTITLE7=Workin' Shoes
TTITLE8=Backdoor Loverman
TTITLE9=Hangin' Out With Mr Daniels
TTITLE10=All Over My Skin
TTITLE11=1000 Miles Blues
TTITLE12=Onololows Blues
EXTD=YEAR: 2007
EXTT0=
EXTT1=
EXTT2=
EXTT3=
EXTT4=
EXTT5=
EXTT6=
EXTT7=
EXTT8=
EXTT9=
EXTT10=
EXTT11=
EXTT12=
PLAYORDER=
